<?xml version="1.0" encoding="UTF-8"?><svg xmlns="http://www.w3.org/2000/svg" width="794" height="882" viewBox="0 0 794 882"><defs><style>.cls-1{fill:#faf6e0;}.cls-1,.cls-2,.cls-3{stroke-width:0px;}.cls-2{fill:#4c1923;}.cls-3{fill:#6f1e23;}</style></defs><g id="Layer_2"><path class="cls-3" d="M444.66,13.9l299.82,171.72c21.53,12.33,37.9,32.22,45.08,55.97,2.99,9.89,4.71,21.22,4.09,33.92-.08,1.71-.15,3.42-.15,5.12l.27,323.65c0,10.72-1.68,21.39-5.15,31.54-4.82,14.12-14.01,33.27-31.34,51.39-6.4,6.7-13.76,12.42-21.79,17.05l-283.33,163.6c-13.95,8.05-29.65,12.59-45.74,13.16-7.33.26-15.94.23-25.67-.36-15.31-.93-30.17-5.54-43.42-13.29l-265.1-155.01c-20.13-11.77-36.72-28.73-48.04-49.12-5.7-10.26-13.7-22.24-17.41-37.89-2.8-11.8-6.3-22.85-6.3-34.7v-312.96s-2-59.64,57-95.64L335.19,17.93c16.59-9.81,35.24-15.75,54.49-16.9.81-.05,1.62-.09,2.45-.13,18.37-.78,36.58,3.85,52.53,12.99Z"/></g><g id="Layer_3"><path class="cls-1" d="M148.63,218.97l48.2,106.79c.84,1.87,3.5,1.87,4.35,0l48.5-106.8c.39-.85,1.24-1.4,2.17-1.4h27.54c1.74,0,2.9,1.81,2.16,3.39l-78.47,169.09c-.84,1.82-3.42,1.85-4.3.05l-83.4-169.09c-.78-1.59.37-3.44,2.14-3.44h28.93c.94,0,1.79.55,2.18,1.4Z"/><rect class="cls-1" x="309.85" y="217.57" width="29.77" height="177" rx="2.96" ry="2.96"/><path class="cls-1" d="M389.23,221.3v169.54c0,2.06,1.67,3.73,3.73,3.73h93.29c2.06,0,3.73-1.67,3.73-3.73v-22.78c0-2.06-1.68-3.74-3.74-3.73l-61.49.22c-2.07,0-3.75-1.67-3.74-3.74l.27-139.52c0-2.06-1.67-3.74-3.73-3.74h-24.59c-2.06,0-3.73,1.67-3.73,3.73Z"/><path class="cls-1" d="M519.75,217.57v177h60.34c24.56,0,48.4-9.14,66.1-26.16,7.43-7.15,14.21-16,18.81-26.84,5.45-12.82,7.37-37.04,6-48-.83-6.67-1.67-44.58-44.13-65.72-13.93-6.93-29.36-10.28-44.92-10.28h-62.21Z"/><path class="cls-1" d="M520,453.57v177h60.34c24.56,0,48.4-9.14,66.1-26.16,7.43-7.15,14.21-16,18.81-26.84,5.45-12.82,7.37-37.04,6-48-.83-6.67-1.67-44.58-44.13-65.72-13.93-6.93-29.36-10.28-44.92-10.28h-62.21Z"/><path class="cls-1" d="M127.26,629.57h25.51c1.43,0,2.66-1.03,2.9-2.44l16.33-94.56,45.21,95.31c.49,1.03,1.53,1.69,2.67,1.69h6.23c1.06,0,2.02-.62,2.46-1.59l43.38-95.41,16.5,94.39c.26,1.51,1.58,2.61,3.11,2.61h26.32c1.52,0,2.67-1.37,2.39-2.87l-30.91-170.13c-.21-1.16-1.22-2-2.4-2h-4.68c-1.14,0-2.18.65-2.67,1.68l-57.22,119.15-55.75-118.96c-.54-1.14-1.68-1.87-2.95-1.87h-6.08c-1.37,0-2.55.98-2.79,2.34l-30.26,169.45c-.3,1.67.99,3.21,2.69,3.21Z"/><path class="cls-1" d="M341.11,626.17l74.44-169.54c.55-1.25,1.78-2.06,3.15-2.06h3.15c1.26,0,2.4.74,2.91,1.89l75.52,170.12c.62,1.4-.4,2.99-1.94,2.99h-23.71c-1.55,0-2.96-.89-3.62-2.29l-13.04-27.66c-.59-1.25-1.85-2.05-3.23-2.05h-71.41c-1.43,0-2.73.8-3.38,2.08l-14.02,27.84c-.64,1.27-1.95,2.08-3.37,2.08h-19.23c-1.75,0-2.93-1.8-2.22-3.4Z"/><g id="Layer_4"><path class="cls-3" d="M550,245.57v117.48s17.38,2.54,39.12-1.65c19.73-3.79,36.73-16.73,44.47-35.28,2.42-5.79,3.98-12.23,3.82-19.08-.03-1.44-.03-2.89.02-4.33.11-3.82-.36-12.83-5.98-23.75-8.57-16.64-24.51-28.12-42.82-32.05-10.03-2.15-23.05-3.35-38.63-1.35Z"/><path class="cls-3" d="M550,484.57v117.48s17.38,2.54,39.12-1.65c19.73-3.79,36.73-16.73,44.47-35.28,2.42-5.79,3.98-12.23,3.82-19.08-.03-1.44-.03-2.89.02-4.33.11-3.82-.36-12.83-5.98-23.75-8.57-16.64-24.51-28.12-42.82-32.05-10.03-2.15-23.05-3.35-38.63-1.35Z"/><path class="cls-3" d="M395.72,572.57h47.26c1.26,0,2.08-1.32,1.53-2.45l-23.63-48.71c-.62-1.28-2.45-1.28-3.07,0l-23.63,48.71c-.55,1.13.28,2.45,1.53,2.45Z"/></g></g><g id="Layer_5"><rect class="cls-2" y="669.57" width="794" height="131" rx="13.92" ry="13.92"/></g><g id="Layer_7"><path class="cls-1" d="M91.25,687.57h13.02c.7,0,1.27.58,1.25,1.28l-1.5,74.44c-.01.7.55,1.28,1.25,1.28h42.29c.69,0,1.24.55,1.25,1.24l.16,11.49c0,.7-.55,1.27-1.25,1.27h-56.47c-.69,0-1.25-.56-1.25-1.25v-88.49c0-.69.56-1.25,1.25-1.25Z"/><path class="cls-1" d="M164.99,687.57h56.26c.65,0,1.17.53,1.17,1.17v12.02c0,.65-.53,1.17-1.17,1.17h-41.48c-.66,0-1.18.54-1.17,1.19l.39,22.29c.01.64.53,1.15,1.17,1.15h31.05c.66,0,1.19.55,1.17,1.21l-.34,10.65c-.02.63-.54,1.14-1.17,1.14h-30.69c-.65,0-1.17.53-1.17,1.17v22.65c0,.65.53,1.17,1.17,1.17h41.07c.65,0,1.17.53,1.17,1.17v12.19c0,.65-.53,1.17-1.17,1.17h-56.26c-.65,0-1.17-.53-1.17-1.17v-89.19c0-.65.53-1.17,1.17-1.17Z"/><path class="cls-1" d="M234.03,778.06l42.71-89.09c.27-.56,1.06-.56,1.33,0l41.97,89.09c.23.49-.13,1.05-.66,1.05h-13.93c-.27,0-.51-.14-.64-.38l-6.6-11.79c-.13-.23-.38-.38-.64-.38h-41.12c-.28,0-.53.15-.65.4l-6.04,11.74c-.13.24-.38.4-.65.4h-14.41c-.54,0-.9-.56-.66-1.05Z"/><path class="cls-1" d="M337.71,688.9v88.88l1.33,1.33h11.08l1.33-1.33v-34.72l1.31-1.33,11.24-.16s0,0,0,0l23.07,37.54s0,0,0,0h17.99l.42-.8-25.48-37.74s0,0,0,0c0,0,6.9-4.31,12.69-12.14,1.07-1.45,1.84-3.1,2.3-4.84l.02-.06c3.02-11.37-1.25-23.62-11-30.2-.47-.32-3.3-2.04-4.19-2.62-1.8-1.17-4.78-2.12-10.96-3.12-.07-.01-.15-.02-.22-.02h-29.6c-.52.52-.81.81-1.33,1.33Z"/><path class="cls-1" d="M421.03,688.61v89.45c0,.58.47,1.05,1.05,1.05h13.51c.58,0,1.05-.47,1.05-1.05v-52.38c0-.94,1.15-1.41,1.8-.72l51.14,53.82c.2.21.47.33.76.33h3.59c.58,0,1.05-.47,1.05-1.05v-89.45c0-.58-.47-1.05-1.05-1.05h-12c-.57,0-1.04.46-1.05,1.03l-.85,52.4c-.02.94-1.16,1.38-1.81.7l-50.79-53.8c-.2-.21-.47-.33-.76-.33h-4.61c-.58,0-1.05.47-1.05,1.05Z"/><path class="cls-1" d="M550.03,688.67v89.33c0,.61.49,1.1,1.1,1.1h13.4c.61,0,1.1-.49,1.1-1.1v-52.17c0-1,1.22-1.48,1.9-.76l51.03,53.69c.21.22.5.34.8.34h3.51c.61,0,1.1-.49,1.1-1.1v-89.33c0-.61-.49-1.1-1.1-1.1h-11.89c-.6,0-1.09.48-1.1,1.09l-.84,52.2c-.02.99-1.23,1.46-1.91.74l-50.67-53.68c-.21-.22-.5-.35-.8-.35h-4.53c-.61,0-1.1.49-1.1,1.1Z"/><rect class="cls-1" x="515.17" y="687.57" width="15.27" height="91.54" rx="1.65" ry="1.65"/><path class="cls-1" d="M707.42,705.51l6.26-9.04c.69-1,.31-2.38-.8-2.88-4.31-1.92-14.2-6.03-20.13-6.03,0,0-21.75-3-35.75,11,0,0-2.3,2.11-5.13,6.23-9.93,14.45-11.66,32.97-5.2,49.27.06.16.13.32.19.48,3.14,7.72,8.63,14.2,15.64,18.7,3.26,2.09,7.2,4.1,11.32,5.07.86.2,1.73.32,2.6.41,3.97.44,15.43,1.46,24.46-.17,0,0,7.2-.71,14.26-5.14,2.41-1.52,3.85-4.2,3.85-7.05v-34.18c0-1.2-.99-2.18-2.19-2.16l-31.35.5c-.81.01-1.46.67-1.46,1.48v10.29c0,1.24,1.01,2.25,2.25,2.25h16.61c.63,0,1.13.51,1.13,1.13v17.29c0,.92-.67,1.7-1.58,1.84-5.09.74-21.24,2.42-30.42-4.26,0,0-11.13-4.76-14-21s9-28,9-28c0,0,17.7-15.83,36.91-5.25,1.21.67,2.73.33,3.52-.8Z"/><g id="Layer_8"><path class="cls-2" d="M275.9,724.92l-12.08,25.89c-.38.82.22,1.76,1.12,1.76h24.63c.91,0,1.51-.95,1.11-1.77l-12.54-25.89c-.45-.94-1.79-.93-2.23.02Z"/><path class="cls-2" d="M353,705.07v22.25c0,.89.69,1.64,1.58,1.69,4.99.31,20.27.47,23.94-8.89.48-1.23.67-2.55.65-3.87-.06-4.83-2.67-15.32-24.65-12.86-.86.1-1.52.82-1.52,1.69Z"/></g></g></svg>